<svg width="20" height="20" viewBox="0 0 20 20" fill="none" xmlns="http://www.w3.org/2000/svg">
<path d="M5.83329 7.5H1.66663V18.3333H5.83329V7.5Z" fill="black"/>
<path d="M14.8403 6.70371C14.7115 6.68737 14.5747 6.67921 14.4378 6.67104C12.482 6.58937 11.3794 7.76543 10.9931 8.27179C10.8884 8.41063 10.8401 8.4923 10.8401 8.4923V6.98139H7.5V18.2847H10.8401H10.9931C10.9931 17.1331 10.9931 15.9897 10.9931 14.8381C10.9931 14.2174 10.9931 13.5967 10.9931 12.976C10.9931 12.2083 10.9367 11.3916 11.315 10.6893C11.637 10.1012 12.2164 9.80721 12.8684 9.80721C14.8 9.80721 14.8403 11.5795 14.8403 11.7428C14.8403 11.751 14.8403 11.7591 14.8403 11.7591V18.3337H18.3333V10.9588C18.3333 8.43513 17.0697 6.94872 14.8403 6.70371Z" fill="black"/>
<path d="M3.74995 5.83366C4.90055 5.83366 5.83329 4.90092 5.83329 3.75033C5.83329 2.59973 4.90055 1.66699 3.74995 1.66699C2.59936 1.66699 1.66663 2.59973 1.66663 3.75033C1.66663 4.90092 2.59936 5.83366 3.74995 5.83366Z" fill="black"/>
</svg>
